{"title":"Basic 2003 DVDrip English Klam","uid":11086892,"size":1506136851,"categoryP":"video","categoryS":"movies","magnet":"?xt=urn:btih:bfaa0d404fc8f1a76089eb717ff4b1aefbdf702a&amp;dn=Basic+2003+DVDrip+English+Klam&amp;tr=udp%3A%2F%2Ftracker.openbittorrent.com%3A80&amp;tr=udp%3A%2F%2Fopen.demonii.com%3A1337&amp;tr=udp%3A%2F%2Ftracker.coppersurfer.tk%3A6969&amp;tr=udp%3A%2F%2Fexodus.desync.com%3A6969","seeders":0,"leechers":0,"uploader":"Klambake","files":-1,"time":1411468430,"description":"With: John Travolta, Connie Nielsen and Samuel L. Jackson\n\nWanneer de gehate drilsergeant Nathan West en zes soldaten van zijn elite-eenheid verdwijnen tijdens een trainingsmissie in Panama, wordt er een onderzoek ingesteld. Twee commando's overleven de missie, maar ze weigeren te praten over wat er zich afspeelde in de jungle. Voormalig Army Ranger en huidig drugsagent Tom Hardy wordt op de zaak gezet om informatie los te weken bij de twee soldaten. Al snel ontdekt hij dat sergeant West door zijn eigen manschappen werd omgebracht, maar de twee militairen leggen tegenstrijdige verklaringen af over wie verantwoordelijk is voor het doden.\n\nA DEA agent investigates the disappearance of a legendary Army ranger drill sergeant and several of his cadets during a training exercise gone severely awry.\n &lt;a href=&quot;\nhttp://www.imdb.com/title/tt0264395&quot; rel=&quot;nofollow&quot; target=&quot;_NEW&quot;&gt;\nhttp://www.imdb.com/title/tt0264395&lt;/a&gt;\t\n\n--------------------- Dutch Friends 4ever ---------------------\n---------------------------------------------------------------\n- Bezoek ook eens mijn vrienden op: &lt;a href=&quot; http://www.Film-Test.nl&quot; rel=&quot;nofollow&quot; target=&quot;_NEW&quot;&gt; http://www.Film-Test.nl&lt;/a&gt; --\n----- voor mijn Nederlandse Sync. ondertitels ---- en meer ----\n------- http://www.Film-Test.nl ---- Over Films en meer -------\n---------------------------------------------------------------\n &lt;a href=&quot;\nhttp://i.imgur.com/W2H4Yxs.jpg&quot; rel=&quot;nofollow&quot; target=&quot;_NEW&quot;&gt;\nhttp://i.imgur.com/W2H4Yxs.jpg&lt;/a&gt; &lt;a href=&quot;\nhttp://i.imgur.com/iU2qYY3.jpg&quot; rel=&quot;nofollow&quot; target=&quot;_NEW&quot;&gt;\nhttp://i.imgur.com/iU2qYY3.jpg&lt;/a&gt; &lt;a href=&quot;\nhttp://i.imgur.com/cIevOfc.jpg&quot; rel=&quot;nofollow&quot; target=&quot;_NEW&quot;&gt;\nhttp://i.imgur.com/cIevOfc.jpg&lt;/a&gt;\n\nGeneral:\n\nComplete name                            : BasicBasic.avi\nFormat                                   : AVI\nFormat/Info                              : Audio Video Interleave\nFile size                                : 1.40 GiB\nDuration                                 : 1h 34mn\nOverall bit rate                         : 2 133 Kbps\n\nVideo:\n\nFormat                                   : MPEG-4 Visual\nFormat profile                           : Simple@L3\nFormat settings, BVOP                    : No\nFormat settings, QPel                    : No\nFormat settings, GMC                     : No warppoints\nFormat settings, Matrix                  : Default (H.263)\nCodec ID                                 : XVID\nCodec ID/Hint                            : XviD\nDuration                                 : 1h 34mn\nSource duration                          : 1h 34mn\nBit rate                                 : 1 674 Kbps\nWidth                                    : 720 pixels\nHeight                                   : 304 pixels\nDisplay aspect ratio                     : 2.35:1\nFrame rate                               : 25.000 fps\nColor space                              : YUV\nChroma subsampling                       : 4:2:0\nBit depth                                : 8 bits\nScan type                                : Progressive\nCompression mode                         : Lossy\nBits/(Pixel*Frame)                       : 0.306\nStream size                              : 1.10 GiB (78%)\nWriting library                          : XviD 1.1.2 (UTC 2006-11-01)\n\nAudio:\n\nFormat                                   : AC-3\nFormat/Info                              : Audio Coding 3\nMode extension                           : CM (complete main)\nFormat settings, Endianness              : Big\nCodec ID                                 : 2000\nDuration                                 : 1h 34mn\nBit rate mode                            : Constant\nBit rate                                 : 448 Kbps\nChannel(s)                               : 6 channels\nChannel positions                        : Front: L C R, Side: L R, LFE\nSampling rate                            : 48.0 KHz\nBit depth                                : 16 bits\nCompression mode                         : Lossy\nStream size                              : 302 MiB (21%)\nAlignment                                : Aligned on interleaves\nInterleave, duration                     : 32 ms (0.80 video frame)\n\n","torrent":{"xt":"urn:btih:bfaa0d404fc8f1a76089eb717ff4b1aefbdf702a","amp;dn":"Basic+2003+DVDrip+English+Klam","amp;tr":["udp%3A%2F%2Ftracker.openbittorrent.com%3A80","udp%3A%2F%2Fopen.demonii.com%3A1337","udp%3A%2F%2Ftracker.coppersurfer.tk%3A6969","udp%3A%2F%2Fexodus.desync.com%3A6969"],"infoHash":"bfaa0d404fc8f1a76089eb717ff4b1aefbdf702a","infoHashBuffer":{"type":"Buffer","data":[191,170,13,64,79,200,241,167,96,137,235,113,127,244,177,174,251,223,112,42]},"announce":[],"urlList":[]}}